<svg width="50" height="50" viewBox="0 0 50 50" fill="none" xmlns="http://www.w3.org/2000/svg">
<path d="M2.60565 24.1965C2.16187 24.6402 2.16187 25.3598 2.60565 25.8035L9.83742 33.0353C10.2812 33.4791 11.0007 33.4791 11.4445 33.0353C11.8883 32.5915 11.8883 31.872 11.4445 31.4282L5.01624 25L11.4445 18.5718C11.8883 18.128 11.8883 17.4085 11.4445 16.9647C11.0007 16.5209 10.2812 16.5209 9.83743 16.9647L2.60565 24.1965ZM46.2582 25.8035C46.7019 25.3598 46.7019 24.6403 46.2582 24.1965L39.0264 16.9647C38.5826 16.5209 37.8631 16.5209 37.4193 16.9647C36.9756 17.4085 36.9756 18.128 37.4193 18.5718L43.8476 25L37.4193 31.4282C36.9756 31.872 36.9756 32.5915 37.4193 33.0353C37.8631 33.4791 38.5826 33.4791 39.0264 33.0353L46.2582 25.8035ZM3.40918 25L3.40918 26.1364L45.4546 26.1364L45.4546 25L45.4546 23.8636L3.40918 23.8636L3.40918 25Z" fill="#F58B02"/>
</svg>
