<svg width="143" height="24" viewBox="0 0 143 24" fill="none" xmlns="http://www.w3.org/2000/svg">
<path d="M11.087 2.80997C11.3744 1.92551 12.6256 1.92551 12.913 2.80997L14.4786 7.62845C14.6072 8.02399 14.9758 8.2918 15.3916 8.2918H20.4581C21.3881 8.2918 21.7747 9.48183 21.0224 10.0285L16.9235 13.0064C16.5871 13.2509 16.4463 13.6842 16.5748 14.0798L18.1404 18.8982C18.4278 19.7827 17.4155 20.5182 16.6631 19.9715L12.5643 16.9936C12.2278 16.7491 11.7722 16.7491 11.4357 16.9936L7.33688 19.9715C6.58452 20.5182 5.57221 19.7827 5.85959 18.8982L7.42521 14.0798C7.55373 13.6842 7.41294 13.2509 7.07647 13.0064L2.97762 10.0285C2.22526 9.48183 2.61192 8.2918 3.5419 8.2918H8.60835C9.02425 8.2918 9.39285 8.02399 9.52137 7.62845L11.087 2.80997Z" fill="#F58B02"/>
<path d="M38.087 2.80997C38.3744 1.92551 39.6256 1.92551 39.913 2.80997L41.4786 7.62845C41.6072 8.02399 41.9758 8.2918 42.3916 8.2918H47.4581C48.3881 8.2918 48.7747 9.48183 48.0224 10.0285L43.9235 13.0064C43.5871 13.2509 43.4463 13.6842 43.5748 14.0798L45.1404 18.8982C45.4278 19.7827 44.4155 20.5182 43.6631 19.9715L39.5643 16.9936C39.2278 16.7491 38.7722 16.7491 38.4357 16.9936L34.3369 19.9715C33.5845 20.5182 32.5722 19.7827 32.8596 18.8982L34.4252 14.0798C34.5537 13.6842 34.4129 13.2509 34.0765 13.0064L29.9776 10.0285C29.2253 9.48183 29.6119 8.2918 30.5419 8.2918H35.6083C36.0242 8.2918 36.3928 8.02399 36.5214 7.62845L38.087 2.80997Z" fill="#F58B02"/>
<path d="M65.087 2.80997C65.3744 1.92551 66.6256 1.92551 66.913 2.80997L68.4786 7.62845C68.6072 8.02399 68.9758 8.2918 69.3916 8.2918H74.4581C75.3881 8.2918 75.7747 9.48183 75.0224 10.0285L70.9235 13.0064C70.5871 13.2509 70.4463 13.6842 70.5748 14.0798L72.1404 18.8982C72.4278 19.7827 71.4155 20.5182 70.6631 19.9715L66.5643 16.9936C66.2278 16.7491 65.7722 16.7491 65.4357 16.9936L61.3369 19.9715C60.5845 20.5182 59.5722 19.7827 59.8596 18.8982L61.4252 14.0798C61.5537 13.6842 61.4129 13.2509 61.0765 13.0064L56.9776 10.0285C56.2253 9.48183 56.6119 8.2918 57.5419 8.2918H62.6083C63.0242 8.2918 63.3928 8.02399 63.5214 7.62845L65.087 2.80997Z" fill="#F58B02"/>
<path d="M92.087 2.80997C92.3744 1.92551 93.6256 1.92551 93.913 2.80997L95.4786 7.62845C95.6072 8.02399 95.9758 8.2918 96.3916 8.2918H101.458C102.388 8.2918 102.775 9.48183 102.022 10.0285L97.9235 13.0064C97.5871 13.2509 97.4463 13.6842 97.5748 14.0798L99.1404 18.8982C99.4278 19.7827 98.4155 20.5182 97.6631 19.9715L93.5643 16.9936C93.2278 16.7491 92.7722 16.7491 92.4357 16.9936L88.3369 19.9715C87.5845 20.5182 86.5722 19.7827 86.8596 18.8982L88.4252 14.0798C88.5537 13.6842 88.4129 13.2509 88.0765 13.0064L83.9776 10.0285C83.2253 9.48183 83.6119 8.2918 84.5419 8.2918H89.6083C90.0242 8.2918 90.3928 8.02399 90.5214 7.62845L92.087 2.80997Z" fill="#F58B02"/>
<path d="M119.087 2.80997C119.374 1.92551 120.626 1.92551 120.913 2.80997L122.479 7.62845C122.607 8.02399 122.976 8.2918 123.392 8.2918H128.458C129.388 8.2918 129.775 9.48183 129.022 10.0285L124.924 13.0064C124.587 13.2509 124.446 13.6842 124.575 14.0798L126.14 18.8982C126.428 19.7827 125.415 20.5182 124.663 19.9715L120.564 16.9936C120.228 16.7491 119.772 16.7491 119.436 16.9936L115.337 19.9715C114.585 20.5182 113.572 19.7827 113.86 18.8982L115.425 14.0798C115.554 13.6842 115.413 13.2509 115.076 13.0064L110.978 10.0285C110.225 9.48183 110.612 8.2918 111.542 8.2918H116.608C117.024 8.2918 117.393 8.02399 117.521 7.62845L119.087 2.80997Z" fill="#F58B02"/>
</svg>
