<svg width="200" height="200" viewBox="0 0 200 200" fill="none" xmlns="http://www.w3.org/2000/svg">
<rect width="200" height="200" rx="100" fill="#F4F4F4"/>
<path d="M94.4121 49.8164C97.5634 46.8213 102.437 46.8213 105.588 49.8164C110.581 54.5617 119.828 63.9562 127.847 75.4814C135.812 86.9295 142.857 100.889 142.857 114.694C142.857 136.784 123.435 154.286 100 154.286C76.5646 154.286 57.1426 136.784 57.1426 114.694C57.1427 100.889 64.1879 86.9295 72.1533 75.4814C80.1725 63.9562 89.4194 54.5617 94.4121 49.8164Z" stroke="#2C3945" stroke-width="5.71429"/>
<path d="M99.9997 134.285C96.9981 134.285 94.0258 133.693 91.2527 132.545C88.4795 131.396 85.9598 129.712 83.8373 127.59C81.7148 125.467 80.0312 122.948 78.8825 120.175C77.7338 117.401 77.1426 114.429 77.1426 111.427" stroke="#2C3945" stroke-width="5.71429" stroke-linecap="round"/>
</svg>
