<svg width="50" height="50" viewBox="0 0 50 50" fill="none" xmlns="http://www.w3.org/2000/svg">
<path d="M24.1965 47.3953C24.6402 47.8391 25.3598 47.8391 25.8035 47.3953L33.0353 40.1636C33.4791 39.7198 33.4791 39.0003 33.0353 38.5565C32.5915 38.1127 31.872 38.1127 31.4282 38.5565L25 44.9847L18.5718 38.5565C18.128 38.1127 17.4085 38.1127 16.9647 38.5565C16.5209 39.0003 16.5209 39.7198 16.9647 40.1636L24.1965 47.3953ZM25.8035 3.74281C25.3598 3.29903 24.6402 3.29903 24.1965 3.74281L16.9647 10.9746C16.5209 11.4184 16.5209 12.1379 16.9647 12.5816C17.4085 13.0254 18.128 13.0254 18.5718 12.5816L25 6.1534L31.4282 12.5816C31.872 13.0254 32.5915 13.0254 33.0353 12.5816C33.4791 12.1379 33.4791 11.4184 33.0353 10.9746L25.8035 3.74281ZM25 46.5918L26.1364 46.5918L26.1364 4.54634L25 4.54634L23.8636 4.54634L23.8636 46.5918L25 46.5918Z" fill="#F58B02"/>
</svg>
