<svg width="64" height="64" viewBox="0 0 64 64" fill="none" xmlns="http://www.w3.org/2000/svg">
<rect width="64" height="64" rx="32" fill="url(#paint0_linear_22371_280)"/>
<g clip-path="url(#clip0_22371_280)">
<path d="M31.933 15.8748C22.1034 16.3884 15.6148 24.0975 16.0247 33.8188C16.2038 38.0739 17.9143 41.7352 18.3195 45.7736C18.4232 46.8197 18.1216 48.1108 19.328 48.5679C20.8123 49.1286 23.0883 48.1862 24.3323 47.3239C24.7564 47.0364 25.1616 46.7019 25.4726 46.2872C26.7591 47.1401 27.9795 47.9647 29.511 48.3323C36.2541 49.9486 43.6428 46.2495 46.9272 40.3074C53.1002 29.1443 44.7549 15.2056 31.933 15.8748ZM28.1162 39.1718C27.5837 39.5865 27.0701 40.1519 26.481 40.4771C25.6281 40.9341 25.3643 40.4582 25.0438 39.7043C24.0354 37.3058 23.9129 33.2203 24.5019 30.7087C25.2936 27.2924 27.9371 24.286 31.5702 23.9656C35.2457 23.6404 38.6573 25.5065 40.1982 28.8757C43.6098 36.3728 34.8782 43.7756 28.1162 39.1765V39.1718Z" fill="white"/>
</g>
<defs>
<linearGradient id="paint0_linear_22371_280" x1="64" y1="14.7946" x2="-3.17961e-06" y2="49.2054" gradientUnits="userSpaceOnUse">
<stop offset="0.0721154" stop-color="#905DE9"/>
<stop offset="0.442308" stop-color="#3C3DE9"/>
<stop offset="0.903846" stop-color="#4CC4FD"/>
</linearGradient>
<clipPath id="clip0_22371_280">
<rect width="33.9277" height="33.9277" fill="white" transform="translate(15.4219 15.4219)"/>
</clipPath>
</defs>
</svg>
