<svg width="60" height="60" viewBox="0 0 60 60" fill="none" xmlns="http://www.w3.org/2000/svg">
<path d="M12.5 31.8998C12.5 28.5055 12.5 26.8083 13.1862 25.3164C13.8723 23.8246 15.1609 22.72 17.7381 20.511L20.2381 18.3681C24.8964 14.3753 27.2256 12.3789 30 12.3789C32.7744 12.3789 35.1036 14.3753 39.7619 18.3681L42.2619 20.511C44.8391 22.72 46.1277 23.8246 46.8138 25.3164C47.5 26.8083 47.5 28.5055 47.5 31.8998V42.5008C47.5 47.2149 47.5 49.5719 46.0355 51.0364C44.5711 52.5008 42.214 52.5008 37.5 52.5008H22.5C17.786 52.5008 15.4289 52.5008 13.9645 51.0364C12.5 49.5719 12.5 47.2149 12.5 42.5008V31.8998Z" stroke="white" stroke-width="2.5"/>
<path d="M36.25 52.5V40C36.25 38.6193 35.1307 37.5 33.75 37.5H26.25C24.8693 37.5 23.75 38.6193 23.75 40V52.5" stroke="white" stroke-width="2.5" stroke-linecap="round" stroke-linejoin="round"/>
</svg>
