<svg width="64" height="64" viewBox="0 0 64 64" fill="none" xmlns="http://www.w3.org/2000/svg">
<g clip-path="url(#clip0_22371_284)">
<path d="M32 2.31543C48.3944 2.31544 61.6846 15.6056 61.6846 32C61.6846 48.3944 48.3944 61.6846 32 61.6846C15.6056 61.6846 2.31544 48.3944 2.31543 32C2.31543 15.6056 15.6056 2.31543 32 2.31543ZM44.748 18.002C43.8799 18.0174 42.9233 18.2629 41.2285 18.8779C39.5066 19.5028 36.8527 20.5756 32.5195 22.3779C29.468 23.6472 23.3872 26.2666 14.2891 30.2305C13.5061 30.5436 12.8122 30.8904 12.2754 31.2891C11.8037 31.6393 11.2164 32.2056 11.0498 33.0332L11.0225 33.2021C10.9461 33.811 11.0856 34.3956 11.4229 34.8916C11.7299 35.343 12.1443 35.6389 12.4941 35.8379C13.1583 36.2157 14.0507 36.488 14.7969 36.7227C15.0183 36.7923 15.24 36.8612 15.4658 36.9346C16.2849 37.2008 17.2569 37.4937 18.1777 37.7246C19.0623 37.9464 20.025 38.144 20.7725 38.1602C22.2338 38.1917 23.6819 37.5924 25.0693 36.6416C26.5554 35.6385 27.9164 34.7238 29.1504 33.8945C28.7901 34.2306 28.5259 34.4793 28.4326 34.5762C28.2111 34.8062 27.9821 35.0276 27.7393 35.2617C27.3865 35.6018 26.9681 36.0019 26.6289 36.4131C26.2937 36.8195 25.9089 37.3823 25.7695 38.0889C25.4362 39.7785 26.6239 41.0179 28.0254 41.9414C29.2902 42.7749 30.3027 43.4646 31.3213 44.1582C32.4338 44.9159 33.553 45.6787 35.001 46.6279C35.337 46.8482 35.6621 47.0792 36.0059 47.3242C37.1835 48.1638 38.8339 49.4224 40.9512 49.2275C42.9059 49.0476 44.0136 47.2462 44.4795 44.7559C45.5136 39.2275 47.5612 27.1718 48.0391 22.1514C48.0971 21.5409 48.0285 20.842 47.9717 20.5098C47.9134 20.1691 47.7429 19.3405 46.9707 18.7139C46.5354 18.3608 46.0504 18.1938 45.7012 18.1104C45.3421 18.0245 45.0016 17.9978 44.75 18.002H44.748Z" fill="#00A6FB" stroke="#00A6FB" stroke-width="3.12471"/>
</g>
<defs>
<clipPath id="clip0_22371_284">
<rect width="64" height="63.2471" fill="white"/>
</clipPath>
</defs>
</svg>
