<svg width="200" height="200" viewBox="0 0 200 200" fill="none" xmlns="http://www.w3.org/2000/svg">
<rect width="200" height="200" rx="100" fill="#F4F4F4"/>
<path d="M100 55.0147L93.4511 65.9297C88.3023 74.511 85.728 78.8017 85.728 83.5428C85.728 88.2838 88.3023 92.5745 93.4511 101.156L97.5539 107.994C98.6463 109.814 99.1925 110.725 100 110.725C100.808 110.725 101.354 109.814 102.446 107.994L106.549 101.156C111.698 92.5745 114.272 88.2838 114.272 83.5428C114.272 78.8017 111.698 74.511 106.549 65.9297L100 55.0147ZM100 55.0147V43.6035" stroke="#2C3945" stroke-width="5.70561"/>
<path d="M146.559 104.068L133.832 103.854C123.826 103.686 118.823 103.602 114.717 105.972C110.611 108.343 108.183 112.718 103.325 121.467L99.455 128.439C98.4245 130.296 97.9092 131.224 98.313 131.923C98.7168 132.623 99.7783 132.641 101.901 132.676L109.874 132.81C119.88 132.979 124.883 133.063 128.989 130.692C133.095 128.322 135.524 123.947 140.381 115.197L146.559 104.068ZM146.559 104.068L156.442 98.3627" stroke="#2C3945" stroke-width="5.70561"/>
<path d="M53.4407 104.068L66.1678 103.854C76.1739 103.686 81.1769 103.602 85.2828 105.972C89.3887 108.343 91.8173 112.718 96.6745 121.467L100.545 128.439C101.576 130.296 102.091 131.224 101.687 131.923C101.283 132.623 100.222 132.641 98.0987 132.676L90.1256 132.81C80.1195 132.979 75.1165 133.063 71.0106 130.692C66.9047 128.322 64.4761 123.947 59.6188 115.197L53.4407 104.068ZM53.4407 104.068L43.5583 98.3627" stroke="#2C3945" stroke-width="5.70561"/>
<path d="M100 117.773V160.565" stroke="#2C3945" stroke-width="5.70561"/>
</svg>
