<svg width="60" height="60" viewBox="0 0 60 60" fill="none" xmlns="http://www.w3.org/2000/svg">
<path d="M15.8602 30.003L21.1635 35.3063M22.9305 22.9315L28.2338 28.2348M30.0008 15.8612L35.3041 21.1645M12.6766 33.1837L33.1827 12.6776C35.1628 10.6975 36.1538 9.70746 37.2955 9.33651C38.2997 9.01022 39.3811 9.01022 40.3853 9.33651C41.5263 9.70725 42.5155 10.6964 44.4933 12.6742L47.3251 15.506C49.3052 17.4861 50.2963 18.4785 50.6673 19.6201C50.9936 20.6243 50.9929 21.7039 50.6666 22.7081C50.2957 23.8497 49.3059 24.8406 47.3258 26.8206L26.8197 47.3267C24.8396 49.3068 23.8488 50.2966 22.7071 50.6676C21.7029 50.9939 20.6233 50.9945 19.6191 50.6682C18.4775 50.2973 17.4851 49.3062 15.505 47.3261L12.6732 44.4943C10.6954 42.5164 9.70627 41.5273 9.33554 40.3863C9.00925 39.3821 9.00925 38.3007 9.33554 37.2964C9.70648 36.1548 10.6965 35.1638 12.6766 33.1837Z" stroke="white" stroke-width="2.5" stroke-linecap="round" stroke-linejoin="round"/>
</svg>
