<svg width="60" height="60" viewBox="0 0 60 60" fill="none" xmlns="http://www.w3.org/2000/svg">
<path fill-rule="evenodd" clip-rule="evenodd" d="M45.1352 18.8988C44.911 18.4865 44.4746 18.2346 44.0055 18.2465C40.2854 18.341 31.901 20.4699 27.1634 28.2511C22.0415 25.0178 16.4681 25.4758 14.4221 26.0698C14.011 26.1891 13.6896 26.5106 13.5702 26.9217C12.7902 29.6085 12.3351 36.1418 16.987 40.7937C19.1839 42.9906 21.4537 43.878 23.5124 43.9127C25.1307 43.94 26.5438 43.4383 27.6009 42.7432C28.2851 43.4643 29.0082 44.0168 29.6622 44.3943C31.1839 45.2729 33.713 46.0025 36.5004 45.4417C39.3436 44.8697 42.3006 42.9864 44.6563 38.9061C49.3444 30.7862 46.9446 22.2248 45.1352 18.8988ZM26.11 40.729C25.8102 40.1987 25.5465 39.6207 25.336 38.996C24.5497 36.6628 24.5408 33.786 25.9975 30.4736C22.0958 27.9334 17.8293 27.962 15.8025 28.3171C15.2979 30.8474 15.3576 35.6288 18.7548 39.026C20.5616 40.8328 22.235 41.3908 23.5546 41.413C24.5749 41.4303 25.4567 41.129 26.11 40.729ZM29.0831 29.9149C32.8929 23.316 39.7268 21.1445 43.2869 20.7956C44.7648 24.0532 46.3011 31.0572 42.4913 37.6561C40.447 41.1969 38.0585 42.5782 36.0073 42.9909C34.9577 43.202 33.9561 43.1677 33.0823 43.0034L39.8484 30.5989C40.179 29.9928 39.9556 29.2335 39.3496 28.903C38.7435 28.5724 37.9842 28.7957 37.6536 29.4018L34.1147 35.8899L33.6864 34.6053C33.4681 33.9504 32.7602 33.5964 32.1053 33.8147C31.4504 34.033 31.0964 34.7409 31.3147 35.3959L32.479 38.8886L30.7203 42.1129C29.6718 41.4463 28.3514 40.1153 27.7051 38.1976C27.0369 36.2148 27.0388 33.4557 29.0831 29.9149Z" fill="white"/>
</svg>
